<svg class="IconStyles__Icon-sc-22k5bp-0 gIoqbZ" viewBox="0 0 18 18" fill="none" xmlns="http://www.w3.org/2000/svg"><path d="M3.75 3H6.75L8.25 6.75L6.375 7.875C7.17822 9.50365 8.49635 10.8218 10.125 11.625L11.25 9.75L15 11.25V14.25C15 14.6478 14.842 15.0294 14.5607 15.3107C14.2794 15.592 13.8978 15.75 13.5 15.75C10.5744 15.5722 7.81511 14.3299 5.74262 12.2574C3.67013 10.1849 2.42779 7.42555 2.25 4.5C2.25 4.10218 2.40804 3.72064 2.68934 3.43934C2.97064 3.15804 3.35217 3 3.75 3" stroke="#A8ABBD" stroke-width="1.2" stroke-linecap="round" stroke-linejoin="round"></path><path d="M11.25 5.25C11.6478 5.25 12.0294 5.40804 12.3107 5.68934C12.592 5.97064 12.75 6.35217 12.75 6.75" stroke="#A8ABBD" stroke-width="1.2" stroke-linecap="round" stroke-linejoin="round"></path><path d="M11.25 2.25C12.4435 2.25 13.5881 2.72411 14.432 3.56802C15.2759 4.41193 15.75 5.55653 15.75 6.75" stroke="#A8ABBD" stroke-width="1.2" stroke-linecap="round" stroke-linejoin="round"></path></svg>