<svg class="IconStyles__Icon-sc-22k5bp-0 gIoqbZ" viewBox="0 0 18 18" fill="none" xmlns="http://www.w3.org/2000/svg"><path d="M8.99951 12C10.6564 12 11.9995 10.6569 11.9995 9C11.9995 7.34315 10.6564 6 8.99951 6C7.34266 6 5.99951 7.34315 5.99951 9C5.99951 10.6569 7.34266 12 8.99951 12Z" stroke="#A8ABBD" stroke-linecap="round" stroke-linejoin="round"></path><path d="M12 9.00001V10.125C12 10.6223 12.1975 11.0992 12.5492 11.4508C12.9008 11.8025 13.3777 12 13.875 12C14.3723 12 14.8492 11.8025 15.2008 11.4508C15.5525 11.0992 15.75 10.6223 15.75 10.125V9.00001C15.7519 7.54959 15.2865 6.13714 14.4228 4.9719C13.5591 3.80667 12.3431 2.95062 10.9548 2.53058C9.56652 2.11054 8.07987 2.14885 6.71508 2.63983C5.35028 3.13081 4.17993 4.04834 3.3774 5.25652C2.57488 6.46469 2.18285 7.89923 2.25941 9.34763C2.33597 10.796 2.87704 12.1812 3.80246 13.2981C4.72789 14.4149 5.98844 15.204 7.39739 15.5483C8.80634 15.8927 10.2887 15.7741 11.625 15.21" stroke="#A8ABBD" stroke-width="1.2" stroke-linecap="round" stroke-linejoin="round"></path></svg>